<?xml version="1.0" standalone="no"?><!DOCTYPE svg PUBLIC "-//W3C//DTD SVG 1.1//EN" "http://www.w3.org/Graphics/SVG/1.1/DTD/svg11.dtd"><svg t="1722781611629" class="icon" viewBox="0 0 1024 1024" version="1.1" xmlns="http://www.w3.org/2000/svg" p-id="15875" xmlns:xlink="http://www.w3.org/1999/xlink" width="200" height="200"><path d="M896 704a32 32 0 0 1 32 32v160a32 32 0 0 1-32 32h-128a32 32 0 0 1-32-32v-160a32 32 0 0 1 32-32h128z m0 32h-128v160h128v-160zM710.912 218.336a16 16 0 0 1-9.28 20.64 292.064 292.064 0 0 0-188.16 257.024h182.464a16 16 0 0 1 2.88 31.744l-2.88 0.256h-182.496a292 292 0 0 0 188.16 257.024 16 16 0 0 1-11.328 29.952 324 324 0 0 1-188.16-188.16 323.744 323.744 0 0 1-20.704-98.816H370.24a16 16 0 0 1-2.88-31.744l2.88-0.256h111.136a324.064 324.064 0 0 1 208.864-286.976 16 16 0 0 1 20.64 9.28zM288 384a32 32 0 0 1 32 32v192a32 32 0 0 1-32 32H160a32 32 0 0 1-32-32v-192a32 32 0 0 1 32-32h128z m608 13.248a32 32 0 0 1 32 32v160a32 32 0 0 1-32 32h-128a32 32 0 0 1-32-32v-160a32 32 0 0 1 32-32h128zM288 416H160v192h128v-192z m608 13.248h-128v160h128v-160zM896 96a32 32 0 0 1 32 32v160a32 32 0 0 1-32 32h-128a32 32 0 0 1-32-32V128a32 32 0 0 1 32-32h128z m0 32h-128v160h128V128z" fill="#1296db" p-id="15876"></path></svg>